<?xml version="1.0" encoding="iso-8859-1"?>
<!-- Uploaded to: SVG Repo, www.svgrepo.com, Generator: SVG Repo Mixer Tools -->
<!DOCTYPE svg PUBLIC "-//W3C//DTD SVG 1.1//EN" "http://www.w3.org/Graphics/SVG/1.1/DTD/svg11.dtd">
<svg fill="#000000" version="1.1" id="Capa_1" xmlns="http://www.w3.org/2000/svg" xmlns:xlink="http://www.w3.org/1999/xlink" 
	 width="800px" height="800px" viewBox="0 0 45.014 45.015"
	 xml:space="preserve">
<g>
	<g>
		<path d="M23.214,14.936c-6.424,0-11.648,5.226-11.648,11.649c0,6.422,5.225,11.647,11.648,11.647
			c6.423,0,11.648-5.226,11.648-11.647C34.863,20.162,29.637,14.936,23.214,14.936z"/>
		<path d="M41.26,11.987c1.317-1.317,1.317-3.453,0.001-4.771c-1.318-1.317-3.453-1.318-4.771,0l-3.541,3.54
			c-0.031,0.031-0.052,0.068-0.081,0.099c-2.149-1.351-4.595-2.272-7.216-2.642v-4.84C25.652,1.51,24.142,0,22.279,0
			s-3.373,1.51-3.373,3.373v5.006c0,0.042,0.011,0.08,0.012,0.122c-2.564,0.589-4.929,1.709-6.966,3.245L8.525,8.319
			c-1.318-1.317-3.453-1.317-4.771,0c-1.317,1.318-1.317,3.453,0,4.771l3.541,3.541c0.03,0.031,0.066,0.051,0.099,0.081
			c-1.788,2.846-2.827,6.208-2.827,9.81c0,10.197,8.296,18.493,18.493,18.493s18.493-8.296,18.493-18.493
			c0-4.166-1.387-8.013-3.719-11.108L41.26,11.987z M23.059,40.798c-7.872,0-14.276-6.403-14.276-14.276
			c0-7.872,6.404-14.277,14.276-14.277s14.275,6.404,14.275,14.277C37.334,34.395,30.93,40.798,23.059,40.798z"/>
	</g>
</g>
</svg>